<svg width="48" height="48" viewBox="0 0 48 48" fill="none" xmlns="http://www.w3.org/2000/svg">
<g clip-path="url(#clip0_2638_88008)">
<path d="M46.6541 15.2215L34.546 5.11491C34.2381 4.85098 33.7542 5.07092 33.7542 5.47782V11.1634H20.5244C19.9965 11.1634 19.5566 11.5923 19.5566 12.1202V19.7854C19.5566 20.3132 19.9855 20.7421 20.5244 20.7421H33.7542V26.4277C33.7542 26.8347 34.2271 27.0546 34.546 26.7907L46.6541 16.6841C47.116 16.2992 47.116 15.5954 46.6541 15.2105V15.2215Z" fill="#C9F5FE"/>
<path d="M1.34642 32.0459L13.4545 42.1525C13.7624 42.4164 14.2463 42.1965 14.2463 41.7896V36.1039H27.5861C28.1139 36.1039 28.5538 35.675 28.5538 35.1472V27.482C28.5538 26.9542 28.1249 26.5253 27.5861 26.5253H14.2463V20.8396C14.2463 20.4327 13.7734 20.2128 13.4545 20.4767L1.34642 30.5833C0.884528 30.9682 0.884528 31.672 1.34642 32.0569V32.0459Z" fill="#00CCFF"/>
</g>
<defs>
<clipPath id="clip0_2638_88008">
<rect width="48" height="48" fill="white"/>
</clipPath>
</defs>
</svg>
