<svg width="48" height="48" viewBox="0 0 48 48" fill="none" xmlns="http://www.w3.org/2000/svg">
<g clip-path="url(#clip0_2638_88002)">
<path d="M44 33.4C44 30.09 35.05 27.4 24 27.4C12.95 27.4 4 30.09 4 33.4V37C4 40.31 12.95 43 24 43C35.05 43 44 40.31 44 37V33.4Z" fill="#00CCFF"/>
<path d="M24.7701 35.34L35.3101 22.77C35.5801 22.44 35.3501 21.95 34.9301 21.95H29.0001V6.56C29.0001 6.01 28.5501 5.56 28.0001 5.56H20.0001C19.4501 5.56 19.0001 6.01 19.0001 6.56V21.95H13.0701C12.6501 21.95 12.4101 22.45 12.6901 22.77L23.2401 35.34C23.6401 35.82 24.3701 35.82 24.7701 35.34Z" fill="#C9F5FE"/>
</g>
<defs>
<clipPath id="clip0_2638_88002">
<rect width="48" height="48" fill="white"/>
</clipPath>
</defs>
</svg>
