<svg width="48" height="48" viewBox="0 0 48 48" fill="none" xmlns="http://www.w3.org/2000/svg">
<g clip-path="url(#clip0_2626_87780)">
<path d="M44 34C44 30.69 35.05 28 24 28C12.95 28 4 30.69 4 34V37C4 40.31 12.95 43 24 43C35.05 43 44 40.31 44 37V34Z" fill="#00CCFF"/>
<path d="M24.7701 5.92001L35.3101 18.49C35.5801 18.82 35.3501 19.31 34.9301 19.31H29.0001V34.7C29.0001 35.25 28.5501 35.7 28.0001 35.7H20.0001C19.4501 35.7 19.0001 35.25 19.0001 34.7V19.31H13.0701C12.6501 19.31 12.4101 18.81 12.6901 18.49L23.2401 5.92001C23.6401 5.44001 24.3701 5.44001 24.7701 5.92001Z" fill="#C9F5FE"/>
</g>
<defs>
<clipPath id="clip0_2626_87780">
<rect width="48" height="48" fill="white"/>
</clipPath>
</defs>
</svg>
