<svg width="25" height="24" viewBox="0 0 25 24" fill="none" xmlns="http://www.w3.org/2000/svg">
<path fill-rule="evenodd" clip-rule="evenodd" d="M20.5 2.5C22.7091 2.5 24.5 4.29086 24.5 6.5V17.5C24.5 19.7091 22.7091 21.5 20.5 21.5H4.5C2.29086 21.5 0.5 19.7091 0.5 17.5V17H6.5C8.98528 17 11 14.9853 11 12.5C11 10.0147 8.98528 8 6.5 8H0.5V6.5C0.5 4.29086 2.29086 2.5 4.5 2.5H20.5Z" fill="#C9F5FE"/>
<path fill-rule="evenodd" clip-rule="evenodd" d="M6.5 9.5C8.15685 9.5 9.5 10.8431 9.5 12.5C9.5 14.1569 8.15685 15.5 6.5 15.5H0.5V9.5H6.5ZM6.5 14C5.67157 14 5 13.3284 5 12.5C5 11.6716 5.67157 11 6.5 11C7.32843 11 8 11.6716 8 12.5C8 13.3284 7.32843 14 6.5 14Z" fill="#C9F5FE"/>
</svg>
